<svg width="331" height="90" viewBox="0 0 331 90" fill="none" xmlns="http://www.w3.org/2000/svg">
<path d="M92.8687 74.7949C92.8687 75.8451 93.4237 76.4408 94.5102 76.4408H94.9636C96.0579 76.4408 96.605 75.8451 96.605 74.7949V68.6658C96.605 68.5796 96.6754 68.5012 96.7536 68.5012H98.4341C98.5201 68.5012 98.5983 68.5874 98.5983 68.6658V74.7949C98.5983 76.8954 97.2616 78.1729 95.245 78.1729H94.2132C92.1965 78.1729 90.8599 76.8954 90.8599 74.7949V68.6658C90.8599 68.5796 90.9302 68.5012 91.0084 68.5012H92.6889C92.7749 68.5012 92.8531 68.5874 92.8531 68.6658V74.7949H92.8687Z" fill="white"/>
<path d="M107.923 77.8202C107.923 77.9065 107.838 77.9692 107.759 77.9692H101.936C101.85 77.9692 101.787 77.8986 101.787 77.8202V68.658C101.787 68.5718 101.858 68.4934 101.936 68.4934H103.632C103.718 68.4934 103.781 68.5796 103.781 68.658V76.1038H107.759C107.845 76.1038 107.923 76.1743 107.923 76.2527V77.8202Z" fill="white"/>
<path d="M115.943 70.2099C115.943 70.2961 115.857 70.3588 115.779 70.3588H113.145V77.8202C113.145 77.9065 113.075 77.9692 112.996 77.9692H111.316C111.23 77.9692 111.152 77.8986 111.152 77.8202V70.3588H108.518C108.432 70.3588 108.353 70.2882 108.353 70.2099V68.658C108.353 68.5718 108.439 68.4934 108.518 68.4934H115.795C115.881 68.4934 115.959 68.5796 115.959 68.658V70.2099H115.943Z" fill="white"/>
<path d="M120.086 77.8202C120.086 77.9065 120.016 77.9692 119.937 77.9692H118.241C118.155 77.9692 118.093 77.8986 118.093 77.8202V68.658C118.093 68.5718 118.163 68.4934 118.241 68.4934H119.922C120.008 68.4934 120.086 68.5796 120.086 68.658V77.8202V77.8202Z" fill="white"/>
<path d="M134.132 77.8359C134.132 77.9299 134.062 77.977 133.984 77.977H132.178C132.092 77.977 132.038 77.9378 132.03 77.8281L131.217 69.4574C131.107 70.4136 130.951 71.3228 130.693 72.2006L129.951 74.6381C129.919 74.7243 129.88 74.787 129.802 74.787H127.348C127.262 74.787 127.223 74.7165 127.199 74.6381L126.456 72.2006C126.191 71.3306 126.042 70.4136 125.933 69.4574L125.12 77.8281C125.104 77.9221 125.05 77.977 124.971 77.977H123.166C123.08 77.977 123.017 77.9064 123.017 77.8281L124.104 68.6658C124.104 68.5796 124.19 68.5012 124.268 68.5012H127.207C127.293 68.5012 127.332 68.5874 127.355 68.6658L128.583 73.4154L129.81 68.6658C129.841 68.5796 129.88 68.5012 129.958 68.5012H132.897C132.983 68.5012 133.061 68.5874 133.061 68.6658C134.148 77.8281 134.148 77.8437 134.148 77.8437L134.132 77.8359Z" fill="white"/>
<path d="M145.091 77.7027C145.107 77.7419 145.123 77.7889 145.123 77.8124C145.123 77.9065 145.068 77.977 144.982 77.977H143.2C143.059 77.977 142.965 77.9065 142.926 77.7811L142.309 75.7746H138.869L138.252 77.7811C138.213 77.9065 138.111 77.977 137.978 77.977H136.196C136.11 77.977 136.055 77.9221 136.055 77.8281C136.055 77.7967 136.071 77.7419 136.087 77.7027L139.119 68.705C139.158 68.564 139.229 68.4934 139.37 68.4934H141.8C141.941 68.4934 142.019 68.564 142.066 68.705L145.099 77.7027H145.091ZM139.401 74.0503H141.761L141.206 72.2633C140.917 71.3463 140.722 70.3823 140.589 69.622C140.44 70.3823 140.229 71.3542 139.956 72.2633L139.401 74.0503Z" fill="white"/>
<path d="M153.314 70.2099C153.314 70.2961 153.228 70.3588 153.15 70.3588H150.516V77.8202C150.516 77.9065 150.446 77.9692 150.367 77.9692H148.687C148.601 77.9692 148.523 77.8986 148.523 77.8202V70.3588H145.889C145.803 70.3588 145.724 70.2882 145.724 70.2099V68.658C145.724 68.5718 145.81 68.4934 145.889 68.4934H153.166C153.252 68.4934 153.33 68.5796 153.33 68.658V70.2099H153.314Z" fill="white"/>
<path d="M161.905 77.8202C161.905 77.9065 161.834 77.9692 161.756 77.9692H155.612C155.526 77.9692 155.464 77.8986 155.464 77.8202V68.658C155.464 68.5718 155.534 68.4934 155.612 68.4934H161.537C161.623 68.4934 161.701 68.5796 161.701 68.658V70.0688C161.701 70.155 161.616 70.2177 161.537 70.2177H157.465V72.2555H161.537C161.623 72.2555 161.701 72.326 161.701 72.4044V73.8152C161.701 73.9014 161.616 73.9798 161.537 73.9798H157.465V76.237H161.756C161.842 76.237 161.905 76.3076 161.905 76.3859V77.8124V77.8202Z" fill="white"/>
<path d="M176.475 71.7225C176.475 73.2979 175.38 74.5754 173.45 74.5754H171.074V77.8281C171.074 77.9143 171.003 77.977 170.925 77.977H169.229C169.143 77.977 169.08 77.9064 169.08 77.8281V68.6658C169.08 68.5796 169.151 68.5012 169.229 68.5012H173.45C175.38 68.5012 176.475 69.6534 176.475 71.4247V71.7303V71.7225ZM174.474 71.3385C174.474 70.6487 174.005 70.2333 173.207 70.2333H171.081V72.8511H173.207C173.997 72.8511 174.474 72.4749 174.474 71.7852V71.3463V71.3385Z" fill="white"/>
<path d="M185.128 77.8202C185.128 77.9065 185.057 77.9692 184.979 77.9692H178.835C178.749 77.9692 178.687 77.8986 178.687 77.8202V68.658C178.687 68.5718 178.757 68.4934 178.835 68.4934H184.76C184.846 68.4934 184.925 68.5796 184.925 68.658V70.0688C184.925 70.155 184.839 70.2177 184.76 70.2177H180.688V72.2555H184.76C184.846 72.2555 184.925 72.326 184.925 72.4044V73.8152C184.925 73.9014 184.839 73.9798 184.76 73.9798H180.688V76.237H184.979C185.065 76.237 185.128 76.3076 185.128 76.3859V77.8124V77.8202Z" fill="white"/>
<path d="M195.36 71.6363C195.36 72.8668 194.57 73.8935 193.319 74.2933L195.375 77.6713C195.414 77.7418 195.461 77.7967 195.461 77.8672C195.461 77.9378 195.406 77.977 195.336 77.977H193.46C193.335 77.977 193.249 77.9221 193.194 77.8281L191.412 74.4892H189.966V77.8281C189.966 77.9143 189.896 77.977 189.818 77.977H188.121C188.035 77.977 187.973 77.9064 187.973 77.8281V68.6658C187.973 68.5796 188.043 68.5012 188.121 68.5012H192.342C194.273 68.5012 195.367 69.6534 195.367 71.4247V71.6441L195.36 71.6363ZM193.359 71.3306C193.359 70.6409 192.89 70.2255 192.092 70.2255H189.966V72.7571H191.967C192.78 72.7571 193.359 72.3809 193.359 71.6912V71.3306V71.3306Z" fill="white"/>
<path d="M199.948 77.8202C199.948 77.9065 199.878 77.9692 199.799 77.9692H198.103C198.017 77.9692 197.955 77.8986 197.955 77.8202V68.658C197.955 68.5718 198.025 68.4934 198.103 68.4934H199.784C199.87 68.4934 199.948 68.5796 199.948 68.658V77.8202V77.8202Z" fill="white"/>
<path d="M214.002 77.8359C214.002 77.9299 213.932 77.977 213.854 77.977H212.048C211.962 77.977 211.907 77.9378 211.899 77.8281L211.087 69.4574C210.977 70.4136 210.821 71.3228 210.563 72.2006L209.82 74.6381C209.789 74.7243 209.75 74.787 209.672 74.787H207.217C207.131 74.787 207.092 74.7165 207.069 74.6381L206.326 72.2006C206.06 71.3306 205.912 70.4136 205.803 69.4574L204.99 77.8281C204.974 77.9221 204.919 77.977 204.841 77.977H203.035C202.949 77.977 202.887 77.9064 202.887 77.8281L203.981 68.6658C203.981 68.5796 204.067 68.5012 204.145 68.5012H207.084C207.17 68.5012 207.21 68.5874 207.233 68.6658L208.46 73.4154L209.687 68.6658C209.719 68.5796 209.758 68.5012 209.836 68.5012H212.775C212.861 68.5012 212.939 68.5874 212.939 68.6658C214.033 77.8281 214.033 77.8437 214.033 77.8437L214.002 77.8359Z" fill="white"/>
<path d="M223.359 77.8202C223.359 77.9065 223.288 77.9692 223.21 77.9692H217.066C216.98 77.9692 216.918 77.8986 216.918 77.8202V68.658C216.918 68.5718 216.988 68.4934 217.066 68.4934H222.991C223.077 68.4934 223.155 68.5796 223.155 68.658V70.0688C223.155 70.155 223.069 70.2177 222.991 70.2177H218.919V72.2555H222.991C223.077 72.2555 223.155 72.326 223.155 72.4044V73.8152C223.155 73.9014 223.069 73.9798 222.991 73.9798H218.919V76.237H223.21C223.296 76.237 223.359 76.3076 223.359 76.3859V77.8124V77.8202Z" fill="white"/>
<path d="M233.035 70.2099C233.035 70.2961 232.949 70.3588 232.871 70.3588H230.237V77.8202C230.237 77.9065 230.167 77.9692 230.089 77.9692H228.408C228.322 77.9692 228.244 77.8986 228.244 77.8202V70.3588H225.61C225.524 70.3588 225.446 70.2882 225.446 70.2099V68.658C225.446 68.5718 225.532 68.4934 225.61 68.4934H232.887C232.973 68.4934 233.051 68.5796 233.051 68.658V70.2099H233.035Z" fill="white"/>
<path d="M241.618 77.8202C241.618 77.9065 241.548 77.9692 241.47 77.9692H235.326C235.24 77.9692 235.177 77.8986 235.177 77.8202V68.658C235.177 68.5718 235.248 68.4934 235.326 68.4934H241.251C241.337 68.4934 241.415 68.5796 241.415 68.658V70.0688C241.415 70.155 241.329 70.2177 241.251 70.2177H237.178V72.2555H241.251C241.337 72.2555 241.415 72.326 241.415 72.4044V73.8152C241.415 73.9014 241.329 73.9798 241.251 73.9798H237.178V76.237H241.47C241.556 76.237 241.618 76.3076 241.618 76.3859V77.8124V77.8202Z" fill="white"/>
<path d="M251.842 71.6363C251.842 72.8668 251.053 73.8935 249.802 74.2933L251.858 77.6713C251.897 77.7418 251.944 77.7967 251.944 77.8672C251.944 77.9378 251.889 77.977 251.819 77.977H249.943C249.818 77.977 249.732 77.9221 249.677 77.8281L247.895 74.4892H246.449V77.8281C246.449 77.9143 246.378 77.977 246.3 77.977H244.604C244.518 77.977 244.455 77.9064 244.455 77.8281V68.6658C244.455 68.5796 244.526 68.5012 244.604 68.5012H248.825C250.756 68.5012 251.85 69.6534 251.85 71.4247V71.6441L251.842 71.6363ZM249.841 71.3306C249.841 70.6409 249.372 70.2255 248.575 70.2255H246.449V72.7571H248.45C249.263 72.7571 249.841 72.3809 249.841 71.6912V71.3306V71.3306Z" fill="white"/>
<path d="M264.857 70.0766C264.857 70.1628 264.786 70.2255 264.708 70.2255H261.23C260.62 70.2255 260.292 70.5312 260.292 70.9858V71.0798C260.292 71.5814 260.706 71.8244 261.316 72.0047L262.957 72.4906C264.458 72.9295 265.607 73.5408 265.607 75.1632V75.5394C265.607 77.06 264.341 77.977 262.613 77.977H258.525C258.439 77.977 258.377 77.9064 258.377 77.8281V76.4016C258.377 76.3154 258.447 76.2527 258.525 76.2527H262.723C263.192 76.2527 263.606 76.0332 263.606 75.563V75.367C263.606 74.6616 262.887 74.4657 261.925 74.1757L260.433 73.7289C259.08 73.3292 258.306 72.4984 258.306 71.1033V70.8839C258.306 69.5671 259.385 68.5012 260.956 68.5012H264.708C264.794 68.5012 264.857 68.5718 264.857 68.6501V70.0766V70.0766Z" fill="white"/>
<path d="M274.674 77.8202C274.674 77.9065 274.604 77.9692 274.526 77.9692H268.382C268.296 77.9692 268.234 77.8986 268.234 77.8202V68.658C268.234 68.5718 268.304 68.4934 268.382 68.4934H274.307C274.393 68.4934 274.471 68.5796 274.471 68.658V70.0688C274.471 70.155 274.385 70.2177 274.307 70.2177H270.235V72.2555H274.307C274.393 72.2555 274.471 72.326 274.471 72.4044V73.8152C274.471 73.9014 274.385 73.9798 274.307 73.9798H270.235V76.237H274.526C274.612 76.237 274.674 76.3076 274.674 76.3859V77.8124V77.8202Z" fill="white"/>
<path d="M284.484 77.8203C284.484 77.9065 284.414 77.9692 284.336 77.9692H280.584C278.567 77.9692 277.23 76.6995 277.23 74.5911V71.848C277.23 69.7553 278.567 68.4856 280.584 68.4856H284.328C284.414 68.4856 284.492 68.5718 284.492 68.6502V71.6912C284.492 71.7774 284.422 71.8401 284.343 71.8401H282.647C282.561 71.8401 282.499 71.7696 282.499 71.6912V70.2099H280.881C279.794 70.2099 279.239 70.8055 279.239 71.8558V74.5833C279.239 75.6336 279.794 76.2292 280.881 76.2292H284.343C284.429 76.2292 284.492 76.2998 284.492 76.3781V77.8046L284.484 77.8203Z" fill="white"/>
<path d="M289.385 74.7949C289.385 75.8451 289.94 76.4408 291.027 76.4408H291.48C292.574 76.4408 293.121 75.8451 293.121 74.7949V68.6658C293.121 68.5796 293.192 68.5012 293.27 68.5012H294.951C295.037 68.5012 295.115 68.5874 295.115 68.6658V74.7949C295.115 76.8954 293.778 78.1729 291.761 78.1729H290.73C288.713 78.1729 287.376 76.8954 287.376 74.7949V68.6658C287.376 68.5796 287.447 68.5012 287.525 68.5012H289.205C289.291 68.5012 289.37 68.5874 289.37 68.6658V74.7949H289.385Z" fill="white"/>
<path d="M305.698 71.6363C305.698 72.8668 304.909 73.8935 303.658 74.2933L305.714 77.6713C305.753 77.7418 305.8 77.7967 305.8 77.8672C305.8 77.9378 305.745 77.977 305.675 77.977H303.799C303.674 77.977 303.588 77.9221 303.533 77.8281L301.751 74.4892H300.305V77.8281C300.305 77.9143 300.235 77.977 300.156 77.977H298.46C298.374 77.977 298.312 77.9064 298.312 77.8281V68.6658C298.312 68.5796 298.382 68.5012 298.46 68.5012H302.681C304.612 68.5012 305.706 69.6534 305.706 71.4247V71.6441L305.698 71.6363ZM303.697 71.3306C303.697 70.6409 303.228 70.2255 302.431 70.2255H300.305V72.7571H302.306C303.119 72.7571 303.697 72.3809 303.697 71.6912V71.3306V71.3306Z" fill="white"/>
<path d="M310.294 77.8202C310.294 77.9065 310.224 77.9692 310.146 77.9692H308.45C308.364 77.9692 308.301 77.8986 308.301 77.8202V68.658C308.301 68.5718 308.372 68.4934 308.45 68.4934H310.13C310.216 68.4934 310.294 68.5796 310.294 68.658V77.8202V77.8202Z" fill="white"/>
<path d="M320.034 70.2099C320.034 70.2961 319.948 70.3588 319.87 70.3588H317.236V77.8202C317.236 77.9065 317.165 77.9692 317.087 77.9692H315.407C315.321 77.9692 315.242 77.8986 315.242 77.8202V70.3588H312.608C312.522 70.3588 312.444 70.2882 312.444 70.2099V68.658C312.444 68.5718 312.53 68.4934 312.608 68.4934H319.885C319.971 68.4934 320.05 68.5796 320.05 68.658V70.2099H320.034Z" fill="white"/>
<path d="M326.842 77.8202C326.842 77.9064 326.772 77.9691 326.694 77.9691H324.997C324.911 77.9691 324.849 77.8986 324.849 77.8202V74.8341L321.746 68.7755C321.746 68.7755 321.707 68.6893 321.707 68.6501C321.707 68.5561 321.761 68.5012 321.902 68.5012H323.63C323.77 68.5012 323.848 68.5718 323.903 68.6972L325.224 71.4482C325.529 72.0674 325.779 72.8433 325.873 73.5252C325.967 72.8355 326.217 72.0752 326.522 71.4482L327.85 68.6972C327.905 68.5718 327.976 68.5012 328.116 68.5012H329.844C329.953 68.5012 330.023 68.5404 330.023 68.6423C330.023 68.6815 330.008 68.7285 329.984 68.7834L326.866 74.8732V77.8359L326.842 77.8202Z" fill="white"/>
<path d="M128.997 59.4722H119.875L117.069 50.3492H102.819L99.9974 59.4722H90.8755L104.132 20.1584H115.748L129.005 59.4722H128.997ZM109.971 24.8062L105.047 43.1699H114.833L109.971 24.8062Z" fill="white"/>
<path d="M219.247 59.4722H210.125L207.319 50.3492H193.069L190.248 59.4722H181.126L194.383 20.1584H205.998L219.255 59.4722H219.247ZM200.221 24.8062L195.297 43.1699H205.083L200.221 24.8062V24.8062Z" fill="white"/>
<path d="M254.156 59.4722H244.682L236.959 45.0117H230.948V59.4722H222.647V20.1584H240.789C248.801 20.1584 253.327 24.9238 253.327 32.2677V33.1847C253.327 38.2948 250.068 42.5428 244.854 44.2044L254.156 59.4722V59.4722ZM245.026 31.9228C245.026 29.0542 243.08 27.3299 239.758 27.3299H230.941V37.8324H239.242C242.619 37.8324 245.026 36.2805 245.026 33.412V31.9228Z" fill="white"/>
<path d="M291.738 46.4382C291.738 55.1615 286.188 60.4441 277.832 60.4441H271.368C263.012 60.4441 257.462 55.1615 257.462 46.4382V33.6393C257.462 24.9708 263.012 19.696 271.368 19.696H277.832C286.188 19.696 291.738 24.9786 291.738 33.6393V46.4382ZM283.437 33.6941C283.437 29.3285 281.146 26.8675 276.629 26.8675H272.564C268.046 26.8675 265.756 29.3364 265.756 33.6941V46.4382C265.756 50.8038 268.046 53.2648 272.564 53.2648H276.629C281.146 53.2648 283.437 50.7959 283.437 46.4382V33.6941V33.6941Z" fill="white"/>
<path d="M296.365 59.4722V20.1584H304.666V59.4722H296.365ZM328.616 20.1584L313.992 38.24L330 59.4722H319.651L304.721 38.1773L318.58 20.1584H328.616V20.1584Z" fill="white"/>
<path d="M173.481 20.1584H166.556L155.143 45.3017L143.622 20.1584H136.806L132.092 59.433H140.339L143.004 35.9749L152.04 55.0439H158.301L167.22 35.9827L169.893 59.433H178.14L173.481 20.1584Z" fill="white"/>
<path d="M19.0099 59.4723L45.3908 18.0893V0L0 71.3463H19.5571L7.34758 90L60.9145 66.9729H40.8181L45.6722 59.4723H19.0099Z" fill="#ED1C24"/>
<path d="M52.6994 33.6393L39.2861 44.181H55.4274L45.6723 59.4723H78.3455L84.1376 50.3884L69.7629 40.2621V34.7601L54.7395 23.6619V3.41724L45.3909 18.0894V28.247L52.6994 33.6393Z" fill="#ED1C24"/>
</svg>
