<svg xmlns="http://www.w3.org/2000/svg" viewBox="0 0 1800 1200" fill="none">
  <circle cx="604.9" cy="816.2" r="0.48" fill="white" fill-opacity="0.199"/>
  <circle cx="598.3" cy="637.5" r="0.53" fill="white" fill-opacity="0.123"/>
  <circle cx="1361.3" cy="484.2" r="0.71" fill="white" fill-opacity="0.271"/>
  <circle cx="1159.3" cy="544.9" r="0.75" fill="white" fill-opacity="0.396"/>
  <circle cx="398.7" cy="280.0" r="0.45" fill="white" fill-opacity="0.276"/>
  <circle cx="1485.5" cy="901.9" r="0.39" fill="white" fill-opacity="0.389"/>
  <circle cx="541.9" cy="303.2" r="0.57" fill="white" fill-opacity="0.306"/>
  <circle cx="711.3" cy="480.2" r="0.77" fill="white" fill-opacity="0.136"/>
  <circle cx="1629.8" cy="991.3" r="0.51" fill="white" fill-opacity="0.370"/>
  <circle cx="1090.1" cy="298.4" r="0.67" fill="white" fill-opacity="0.252"/>
  <circle cx="379.1" cy="731.4" r="0.78" fill="white" fill-opacity="0.268"/>
  <circle cx="1614.1" cy="1121.4" r="0.51" fill="white" fill-opacity="0.428"/>
  <circle cx="258.9" cy="1046.7" r="0.65" fill="white" fill-opacity="0.478"/>
  <circle cx="1645.2" cy="133.9" r="0.54" fill="white" fill-opacity="0.369"/>
  <circle cx="779.1" cy="158.8" r="0.72" fill="white" fill-opacity="0.457"/>
  <circle cx="160.1" cy="1190.7" r="0.22" fill="white" fill-opacity="0.312"/>
  <circle cx="390.7" cy="123.8" r="0.66" fill="white" fill-opacity="0.468"/>
  <circle cx="1405.9" cy="239.7" r="0.71" fill="white" fill-opacity="0.395"/>
  <circle cx="398.5" cy="1144.2" r="0.72" fill="white" fill-opacity="0.470"/>
  <circle cx="1770.2" cy="1122.3" r="0.76" fill="white" fill-opacity="0.314"/>
  <circle cx="886.5" cy="1055.9" r="0.72" fill="white" fill-opacity="0.370"/>
  <circle cx="1062.0" cy="546.7" r="0.43" fill="white" fill-opacity="0.358"/>
  <circle cx="1256.2" cy="1189.4" r="0.39" fill="white" fill-opacity="0.214"/>
  <circle cx="406.3" cy="1037.6" r="0.68" fill="white" fill-opacity="0.214"/>
  <circle cx="1776.4" cy="607.2" r="0.27" fill="white" fill-opacity="0.308"/>
  <circle cx="1150.3" cy="260.4" r="0.53" fill="white" fill-opacity="0.225"/>
  <circle cx="746.5" cy="314.8" r="0.35" fill="white" fill-opacity="0.194"/>
  <circle cx="1183.2" cy="1120.2" r="0.39" fill="white" fill-opacity="0.422"/>
  <circle cx="1671.9" cy="648.0" r="0.43" fill="white" fill-opacity="0.434"/>
  <circle cx="1267.2" cy="636.1" r="0.46" fill="white" fill-opacity="0.202"/>
  <circle cx="1651.5" cy="234.1" r="0.59" fill="white" fill-opacity="0.371"/>
  <circle cx="1582.0" cy="790.6" r="0.50" fill="white" fill-opacity="0.469"/>
  <circle cx="578.6" cy="129.1" r="0.46" fill="white" fill-opacity="0.139"/>
  <circle cx="1081.2" cy="553.6" r="0.74" fill="white" fill-opacity="0.298"/>
  <circle cx="553.4" cy="1129.2" r="0.39" fill="white" fill-opacity="0.450"/>
  <circle cx="1461.7" cy="281.5" r="0.54" fill="white" fill-opacity="0.380"/>
  <circle cx="908.4" cy="257.4" r="0.77" fill="white" fill-opacity="0.146"/>
  <circle cx="1345.2" cy="492.1" r="0.57" fill="white" fill-opacity="0.268"/>
  <circle cx="1446.9" cy="825.5" r="0.25" fill="white" fill-opacity="0.174"/>
  <circle cx="472.4" cy="1012.8" r="0.30" fill="white" fill-opacity="0.247"/>
  <circle cx="1292.3" cy="70.6" r="0.58" fill="white" fill-opacity="0.283"/>
  <circle cx="1309.5" cy="505.7" r="0.31" fill="white" fill-opacity="0.254"/>
  <circle cx="552.1" cy="1166.9" r="0.67" fill="white" fill-opacity="0.339"/>
  <circle cx="867.4" cy="1166.3" r="0.41" fill="white" fill-opacity="0.161"/>
  <circle cx="1192.6" cy="412.3" r="0.34" fill="white" fill-opacity="0.134"/>
  <circle cx="1533.5" cy="598.0" r="0.27" fill="white" fill-opacity="0.366"/>
  <circle cx="1726.9" cy="1190.3" r="0.41" fill="white" fill-opacity="0.203"/>
  <circle cx="1315.8" cy="861.2" r="0.58" fill="white" fill-opacity="0.144"/>
  <circle cx="115.6" cy="706.8" r="0.57" fill="white" fill-opacity="0.414"/>
  <circle cx="1299.2" cy="1097.3" r="0.78" fill="white" fill-opacity="0.253"/>
  <circle cx="1279.2" cy="1101.3" r="0.73" fill="white" fill-opacity="0.298"/>
  <circle cx="1515.1" cy="128.5" r="0.27" fill="white" fill-opacity="0.441"/>
  <circle cx="424.1" cy="534.4" r="0.73" fill="white" fill-opacity="0.380"/>
  <circle cx="1422.8" cy="631.3" r="0.41" fill="white" fill-opacity="0.472"/>
  <circle cx="1579.7" cy="248.7" r="0.61" fill="white" fill-opacity="0.209"/>
</svg>
