<svg xmlns="http://www.w3.org/2000/svg" viewBox="0 0 1800 1200" fill="none">
  <circle cx="457.0" cy="541.1" r="0.68" fill="white" fill-opacity="0.491"/>
  <circle cx="74.7" cy="19.8" r="0.53" fill="white" fill-opacity="0.792"/>
  <circle cx="1635.6" cy="269.3" r="1.05" fill="white" fill-opacity="0.394"/>
  <circle cx="989.0" cy="802.5" r="0.89" fill="white" fill-opacity="0.917"/>
  <circle cx="1355.1" cy="13.1" r="0.47" fill="white" fill-opacity="0.539"/>
  <circle cx="566.7" cy="518.2" r="0.59" fill="white" fill-opacity="0.618"/>
  <circle cx="742.9" cy="706.5" r="0.93" fill="white" fill-opacity="0.875"/>
  <circle cx="1271.4" cy="635.9" r="0.74" fill="white" fill-opacity="0.335"/>
  <circle cx="1229.8" cy="325.1" r="0.63" fill="white" fill-opacity="0.272"/>
  <circle cx="21.5" cy="1181.3" r="0.67" fill="white" fill-opacity="0.442"/>
  <circle cx="1656.5" cy="9.9" r="0.70" fill="white" fill-opacity="0.525"/>
  <circle cx="1553.6" cy="148.1" r="0.72" fill="white" fill-opacity="0.630"/>
  <circle cx="1793.0" cy="966.9" r="1.38" fill="white" fill-opacity="0.739"/>
  <circle cx="397.5" cy="485.4" r="0.88" fill="white" fill-opacity="0.605"/>
  <circle cx="1469.8" cy="541.0" r="0.45" fill="white" fill-opacity="0.339"/>
  <circle cx="1664.4" cy="658.9" r="0.48" fill="white" fill-opacity="0.659"/>
  <circle cx="722.5" cy="665.4" r="1.10" fill="white" fill-opacity="0.476"/>
  <circle cx="1447.1" cy="1187.8" r="1.21" fill="white" fill-opacity="0.636"/>
  <circle cx="948.1" cy="1085.8" r="1.05" fill="white" fill-opacity="0.922"/>
  <circle cx="633.0" cy="756.6" r="0.62" fill="white" fill-opacity="0.225"/>
  <circle cx="1674.3" cy="159.5" r="0.56" fill="white" fill-opacity="0.479"/>
  <circle cx="1729.2" cy="1101.6" r="0.53" fill="white" fill-opacity="0.575"/>
  <circle cx="141.2" cy="829.9" r="1.11" fill="white" fill-opacity="0.894"/>
  <circle cx="1301.0" cy="272.9" r="0.66" fill="white" fill-opacity="0.666"/>
  <circle cx="895.3" cy="175.3" r="0.93" fill="white" fill-opacity="0.423"/>
  <circle cx="1421.6" cy="670.7" r="0.86" fill="white" fill-opacity="0.838"/>
  <circle cx="1196.2" cy="933.6" r="1.21" fill="white" fill-opacity="0.398"/>
  <circle cx="535.4" cy="657.6" r="1.20" fill="white" fill-opacity="0.345"/>
  <circle cx="835.7" cy="601.0" r="0.68" fill="white" fill-opacity="0.707"/>
  <circle cx="1533.4" cy="944.9" r="1.14" fill="white" fill-opacity="0.617"/>
  <circle cx="369.6" cy="106.7" r="0.86" fill="white" fill-opacity="0.240"/>
  <circle cx="1040.9" cy="554.2" r="0.85" fill="white" fill-opacity="0.346"/>
  <circle cx="361.6" cy="861.9" r="0.86" fill="white" fill-opacity="0.862"/>
  <circle cx="1317.9" cy="354.8" r="0.45" fill="white" fill-opacity="0.664"/>
  <circle cx="1640.0" cy="983.8" r="0.60" fill="white" fill-opacity="0.286"/>
  <circle cx="1572.2" cy="974.5" r="0.47" fill="white" fill-opacity="0.690"/>
  <circle cx="1167.2" cy="295.2" r="1.01" fill="white" fill-opacity="0.875"/>
  <circle cx="1084.6" cy="1087.0" r="1.20" fill="white" fill-opacity="0.237"/>
  <circle cx="1520.7" cy="898.8" r="1.09" fill="white" fill-opacity="0.789"/>
  <circle cx="1547.0" cy="873.4" r="1.17" fill="white" fill-opacity="0.929"/>
  <circle cx="1587.7" cy="925.7" r="1.33" fill="white" fill-opacity="0.318"/>
  <circle cx="1412.3" cy="1058.8" r="0.83" fill="white" fill-opacity="0.607"/>
  <circle cx="871.8" cy="660.4" r="1.00" fill="white" fill-opacity="0.789"/>
  <circle cx="257.9" cy="1124.3" r="1.19" fill="white" fill-opacity="0.739"/>
  <circle cx="1211.6" cy="639.8" r="0.60" fill="white" fill-opacity="0.404"/>
  <circle cx="560.7" cy="293.5" r="1.30" fill="white" fill-opacity="0.549"/>
  <circle cx="513.1" cy="127.1" r="1.35" fill="white" fill-opacity="0.901"/>
  <circle cx="1485.3" cy="94.2" r="1.23" fill="white" fill-opacity="0.510"/>
  <circle cx="93.2" cy="761.3" r="0.48" fill="white" fill-opacity="0.930"/>
  <circle cx="884.0" cy="95.2" r="0.77" fill="white" fill-opacity="0.578"/>
  <circle cx="436.7" cy="981.6" r="1.32" fill="white" fill-opacity="0.252"/>
  <circle cx="110.0" cy="18.1" r="1.39" fill="white" fill-opacity="0.486"/>
  <circle cx="1565.2" cy="426.1" r="1.38" fill="white" fill-opacity="0.869"/>
  <circle cx="842.5" cy="1023.9" r="1.00" fill="white" fill-opacity="0.627"/>
  <circle cx="818.9" cy="1106.5" r="0.44" fill="white" fill-opacity="0.729"/>
  <circle cx="1125.1" cy="174.6" r="1.20" fill="white" fill-opacity="0.619"/>
  <circle cx="650.9" cy="557.0" r="0.39" fill="white" fill-opacity="0.424"/>
  <circle cx="1415.6" cy="870.2" r="1.13" fill="white" fill-opacity="0.637"/>
  <circle cx="1233.3" cy="958.8" r="0.76" fill="white" fill-opacity="0.269"/>
  <circle cx="849.3" cy="860.4" r="0.73" fill="white" fill-opacity="0.439"/>
  <circle cx="1277.1" cy="639.1" r="0.83" fill="white" fill-opacity="0.890"/>
  <circle cx="1714.1" cy="1031.0" r="0.92" fill="white" fill-opacity="0.423"/>
  <circle cx="1663.1" cy="345.4" r="0.58" fill="white" fill-opacity="0.755"/>
  <circle cx="538.7" cy="165.9" r="0.71" fill="white" fill-opacity="0.375"/>
  <circle cx="1086.4" cy="294.7" r="0.77" fill="white" fill-opacity="0.870"/>
  <circle cx="1792.7" cy="883.8" r="0.73" fill="white" fill-opacity="0.262"/>
  <circle cx="1713.3" cy="1197.6" r="0.88" fill="white" fill-opacity="0.577"/>
  <circle cx="199.6" cy="349.7" r="0.43" fill="white" fill-opacity="0.888"/>
  <circle cx="1449.7" cy="857.9" r="0.40" fill="white" fill-opacity="0.515"/>
  <circle cx="62.5" cy="561.9" r="0.65" fill="white" fill-opacity="0.764"/>
  <circle cx="1623.7" cy="746.3" r="1.12" fill="white" fill-opacity="0.335"/>
  <circle cx="1401.3" cy="1013.6" r="1.00" fill="white" fill-opacity="0.874"/>
  <circle cx="1278.8" cy="950.1" r="1.11" fill="white" fill-opacity="0.657"/>
  <circle cx="1503.8" cy="129.6" r="0.47" fill="white" fill-opacity="0.539"/>
  <circle cx="1481.2" cy="297.1" r="0.39" fill="white" fill-opacity="0.513"/>
  <circle cx="1088.0" cy="678.0" r="1.21" fill="white" fill-opacity="0.448"/>
  <circle cx="1638.6" cy="454.9" r="1.30" fill="white" fill-opacity="0.486"/>
  <circle cx="678.1" cy="1157.0" r="0.86" fill="white" fill-opacity="0.440"/>
  <circle cx="432.1" cy="805.1" r="0.62" fill="white" fill-opacity="0.612"/>
  <circle cx="1591.7" cy="756.5" r="0.71" fill="white" fill-opacity="0.804"/>
  <circle cx="1360.1" cy="892.8" r="0.66" fill="white" fill-opacity="0.328"/>
  <circle cx="740.8" cy="1095.1" r="1.28" fill="white" fill-opacity="0.512"/>
  <circle cx="1294.9" cy="850.2" r="0.36" fill="white" fill-opacity="0.473"/>
  <circle cx="844.5" cy="1131.3" r="1.17" fill="white" fill-opacity="0.434"/>
  <circle cx="1652.3" cy="996.5" r="1.31" fill="white" fill-opacity="0.781"/>
  <circle cx="54.1" cy="850.7" r="1.16" fill="white" fill-opacity="0.577"/>
  <circle cx="772.7" cy="611.7" r="1.11" fill="white" fill-opacity="0.872"/>
  <circle cx="591.4" cy="527.5" r="1.09" fill="white" fill-opacity="0.826"/>
  <circle cx="1715.4" cy="685.9" r="0.50" fill="white" fill-opacity="0.390"/>
  <circle cx="398.8" cy="361.5" r="0.96" fill="white" fill-opacity="0.834"/>
  <circle cx="1265.5" cy="1043.6" r="1.11" fill="white" fill-opacity="0.457"/>
  <circle cx="202.3" cy="489.1" r="1.08" fill="white" fill-opacity="0.489"/>
  <circle cx="1552.6" cy="242.9" r="1.15" fill="white" fill-opacity="0.615"/>
  <circle cx="787.2" cy="171.0" r="1.21" fill="white" fill-opacity="0.258"/>
  <circle cx="1082.9" cy="649.6" r="0.65" fill="white" fill-opacity="0.731"/>
</svg>
